<?xml version="1.0" encoding="utf-8"?>
<!-- Generator: Adobe Illustrator 15.0.0, SVG Export Plug-In . SVG Version: 6.00 Build 0)  -->
<!DOCTYPE svg PUBLIC "-//W3C//DTD SVG 1.1//EN" "http://www.w3.org/Graphics/SVG/1.1/DTD/svg11.dtd">
<svg version="1.1" id="レイヤー_1" xmlns="http://www.w3.org/2000/svg" xmlns:xlink="http://www.w3.org/1999/xlink" x="0px"
	 y="0px" width="95.42px" height="28.223px" viewBox="0 0 95.42 28.223" enable-background="new 0 0 95.42 28.223"
	 xml:space="preserve">
<g>
	<path fill="#FFFFFF" d="M20.636,22.08V6.4H3.621V5.369h20.577V6.4h-2.414v15.632c0,1.141-0.141,1.848-0.421,2.121
		c-0.281,0.273-0.984,0.41-2.109,0.41c-0.313,0-1.523-0.039-3.633-0.117l-0.023-0.984c2.078,0.078,3.25,0.117,3.516,0.117
		c0.734,0,1.172-0.07,1.313-0.211S20.636,22.798,20.636,22.08z M7.417,18.728v1.875H6.269V9.916h9.984v8.812H7.417z M7.417,17.791
		h7.71v-6.914h-7.71V17.791z"/>
	<path fill="#FFFFFF" d="M42.643,4.76h1.102v3.352c0,0.047,0.003,0.133,0.012,0.258c0.007,0.125,0.012,0.211,0.012,0.258h4.101
		v1.008h-4.031c0.375,3.141,1.851,5.906,4.429,8.296l-0.703,0.867c-2.172-2.031-3.632-4.367-4.382-7.007
		c-0.907,2.875-2.523,5.219-4.852,7.031l-0.773-0.82c2.921-2.265,4.585-5.054,4.992-8.367h-2.18
		c-0.735,1.891-1.738,3.676-3.012,5.355s-2.699,3.09-4.277,4.23l-0.586-0.914c1.266-0.906,2.461-2.039,3.586-3.398
		c-0.875-0.813-1.703-1.547-2.484-2.203l0.68-0.75c0.531,0.438,1.344,1.156,2.438,2.156c0.469-0.625,0.953-1.375,1.453-2.25
		c-0.969-0.875-1.828-1.609-2.578-2.203l0.656-0.773c0.516,0.407,1.32,1.094,2.414,2.063c0.531-1.078,0.953-2.203,1.266-3.375h-3.68
		c-0.75,1.532-1.688,2.953-2.813,4.266l-0.68-0.609c-0.391,1.203-0.852,2.352-1.382,3.445l-0.867-0.375
		c-0.032,0.406-0.094,1-0.188,1.781c1.062,1.844,2,3.75,2.812,5.718l-0.844,0.563c-0.672-1.609-1.414-3.171-2.226-4.688
		c-0.594,3.047-1.539,5.399-2.836,7.055l-0.75-0.797c2.078-2.719,3.117-7.07,3.117-13.054V4.643h1.055v6.234
		c0,0.969-0.04,2-0.117,3.094c0.968-2.016,1.679-4.313,2.132-6.891l1.031,0.211c-0.25,1.391-0.539,2.625-0.867,3.703
		c1.641-2.063,2.852-4.281,3.633-6.656l1.008,0.211c-0.203,0.656-0.461,1.352-0.773,2.086h4.336v0.938
		C41.01,7.651,40.982,7.76,40.943,7.9c-0.039,0.141-0.074,0.27-0.105,0.387c-0.032,0.117-0.063,0.231-0.094,0.34h1.875
		c0-0.047,0.003-0.121,0.012-0.223c0.007-0.102,0.012-0.176,0.012-0.223V4.76z M26.542,15.494c0.563-2.281,0.844-4.875,0.844-7.781
		l1.078,0.047c0,3.063-0.29,5.734-0.867,8.016L26.542,15.494z M32.307,24.494c0.953-1.609,1.805-3.383,2.555-5.32l1.008,0.445
		c-0.75,1.984-1.602,3.797-2.555,5.438L32.307,24.494z M38.143,25.033c-0.141-1.813-0.367-3.625-0.68-5.438l1.055-0.211
		c0.328,1.969,0.563,3.797,0.703,5.484L38.143,25.033z M42.572,24.986c-0.438-1.813-0.969-3.625-1.594-5.438l1.031-0.328
		c0.609,1.766,1.148,3.586,1.617,5.461L42.572,24.986z M47.001,24.916c-0.766-1.969-1.609-3.805-2.531-5.508l1.007-0.422
		c0.906,1.734,1.75,3.555,2.531,5.461L47.001,24.916z M44.541,5.018l0.82-0.586c0.875,1.125,1.617,2.149,2.227,3.07l-0.844,0.609
		C45.869,6.799,45.134,5.768,44.541,5.018z"/>
	<path fill="#FFFFFF" d="M51.642,7.596h15.937v15.117H51.642v-1.055h14.812V8.65H51.642V7.596z M66.29,4.197l0.844-0.468
		c0.531,0.828,1.219,2,2.063,3.515l-0.844,0.445C67.696,6.471,67.008,5.307,66.29,4.197z M69.29,3.776l0.867-0.469
		C71,4.666,71.704,5.861,72.266,6.893l-0.867,0.445C70.711,6.088,70.008,4.9,69.29,3.776z"/>
	<path fill="#FFFFFF" d="M75.618,21.962l0.047-1.148c5.703,0.203,11.374,0.829,17.015,1.875l-0.164,1.148
		C86.906,22.791,81.274,22.166,75.618,21.962z M76.743,7.268l0.07-1.125c4.906,0.172,9.952,0.649,15.14,1.43l-0.141,1.102
		C86.75,7.909,81.726,7.44,76.743,7.268z M77.54,14.205l0.07-1.148c4.327,0.156,8.757,0.633,13.288,1.43l-0.164,1.148
		C86.109,14.838,81.711,14.361,77.54,14.205z"/>
</g>
</svg>
