<?xml version="1.0" encoding="utf-8"?>
<!-- Generator: Adobe Illustrator 15.0.0, SVG Export Plug-In . SVG Version: 6.00 Build 0)  -->
<!DOCTYPE svg PUBLIC "-//W3C//DTD SVG 1.1//EN" "http://www.w3.org/Graphics/SVG/1.1/DTD/svg11.dtd">
<svg version="1.1" id="レイヤー_1" xmlns="http://www.w3.org/2000/svg" xmlns:xlink="http://www.w3.org/1999/xlink" x="0px"
	 y="0px" width="95.42px" height="28.223px" viewBox="0 0 95.42 28.223" enable-background="new 0 0 95.42 28.223"
	 xml:space="preserve">
<g>
	<path fill="#FFFFFF" d="M3.996,10.15V9.096h9.328V4.408h1.172v4.688h9.328v1.055h-9.304c0.109,2.922,1.016,5.566,2.719,7.933
		c1.703,2.367,4.015,4.223,6.937,5.566l-0.563,0.938c-2.406-1.078-4.457-2.586-6.152-4.523c-1.696-1.937-2.863-4.101-3.504-6.492
		c-0.656,2.391-1.84,4.555-3.551,6.492c-1.711,1.938-3.777,3.445-6.199,4.523L3.644,23.65c2.921-1.344,5.234-3.199,6.937-5.566
		c1.703-2.367,2.609-5.011,2.719-7.933H3.996z"/>
	<path fill="#FFFFFF" d="M30.245,9.635c0.015-0.296,0.023-0.758,0.023-1.383V6.26h-2.789V5.252h11.625V6.26h-2.883v3.375h2.883
		v0.984h-2.883v5.531h-1.125v-5.531h-3.82c-0.157,1.5-0.508,2.754-1.055,3.762c-0.547,1.008-1.321,1.871-2.32,2.589l-0.797-0.82
		c0.922-0.672,1.621-1.434,2.098-2.285c0.476-0.852,0.792-1.934,0.949-3.246H27.01V9.635H30.245z M45.783,19.455h-7.851v3.867h9.609
		v1.008h-20.39v-1.008h9.609v-3.867h-7.921v-0.961h7.921v-2.765h1.172v2.765h7.851V19.455z M31.346,9.635h3.75V6.26h-3.703v1.992
		C31.393,8.58,31.377,9.041,31.346,9.635z M40.486,13.314V5.299h1.102v8.016H40.486z M46.064,4.83h1.148v8.789
		c0,1.109-0.125,1.809-0.375,2.098s-0.852,0.434-1.805,0.434c-0.719,0-1.727-0.039-3.023-0.117v-1.008
		c1.25,0.078,2.203,0.117,2.859,0.117c0.546,0,0.882-0.07,1.007-0.211s0.188-0.57,0.188-1.289V4.83z"/>
	<path fill="#FFFFFF" d="M51.642,7.596h15.937v15.117H51.642v-1.055h14.812V8.65H51.642V7.596z M66.29,4.197l0.844-0.468
		c0.531,0.828,1.219,2,2.063,3.515l-0.844,0.445C67.696,6.471,67.008,5.307,66.29,4.197z M69.29,3.776l0.867-0.469
		C71,4.666,71.704,5.861,72.266,6.893l-0.867,0.445C70.711,6.088,70.008,4.9,69.29,3.776z"/>
	<path fill="#FFFFFF" d="M75.618,21.962l0.047-1.148c5.703,0.203,11.374,0.829,17.015,1.875l-0.164,1.148
		C86.906,22.791,81.274,22.166,75.618,21.962z M76.743,7.268l0.07-1.125c4.906,0.172,9.952,0.649,15.14,1.43l-0.141,1.102
		C86.75,7.909,81.726,7.44,76.743,7.268z M77.54,14.205l0.07-1.148c4.327,0.156,8.757,0.633,13.288,1.43l-0.164,1.148
		C86.109,14.838,81.711,14.361,77.54,14.205z"/>
</g>
</svg>
