<?xml version="1.0" encoding="utf-8"?>
<!-- Generator: Adobe Illustrator 15.0.0, SVG Export Plug-In . SVG Version: 6.00 Build 0)  -->
<!DOCTYPE svg PUBLIC "-//W3C//DTD SVG 1.1//EN" "http://www.w3.org/Graphics/SVG/1.1/DTD/svg11.dtd">
<svg version="1.1" id="レイヤー_1" xmlns="http://www.w3.org/2000/svg" xmlns:xlink="http://www.w3.org/1999/xlink" x="0px"
	 y="0px" width="146.222px" height="28.223px" viewBox="0 0 146.222 28.223" enable-background="new 0 0 146.222 28.223"
	 xml:space="preserve">
<g>
	<path fill="#FFFFFF" d="M3.246,18.962c1.234-1.468,2.968-3.648,5.203-6.539c1.125-1.5,1.886-2.449,2.285-2.848
		s0.824-0.598,1.277-0.598c0.5,0,0.984,0.188,1.453,0.563s1.383,1.297,2.742,2.766c3.188,3.406,5.968,6.297,8.343,8.671l-0.82,0.844
		c-2.641-2.656-5.43-5.554-8.367-8.695c-1.188-1.266-1.973-2.078-2.355-2.438s-0.715-0.539-0.996-0.539
		c-0.188,0-0.434,0.176-0.738,0.527s-0.824,1.004-1.559,1.957c-0.125,0.156-0.219,0.281-0.281,0.375
		c-1.875,2.422-3.641,4.64-5.296,6.656L3.246,18.962z M22.979,8.533c0,0.829-0.293,1.532-0.879,2.109
		c-0.585,0.578-1.285,0.867-2.097,0.867c-0.813,0-1.512-0.289-2.098-0.867c-0.586-0.578-0.879-1.281-0.879-2.109
		c0-0.812,0.289-1.507,0.867-2.086c0.578-0.578,1.281-0.867,2.109-0.867c0.828,0,1.531,0.29,2.109,0.867
		C22.69,7.026,22.979,7.721,22.979,8.533z M21.444,9.975c0.398-0.398,0.597-0.879,0.597-1.441s-0.199-1.039-0.597-1.43
		c-0.398-0.39-0.879-0.586-1.441-0.586s-1.043,0.196-1.441,0.586c-0.398,0.391-0.598,0.867-0.598,1.43s0.199,1.043,0.598,1.441
		s0.879,0.598,1.441,0.598S21.046,10.373,21.444,9.975z"/>
	<path fill="#FFFFFF" d="M30.127,10.877l1.055-0.258c0.437,1.453,1,3.523,1.687,6.21l-1.078,0.234
		C31.229,14.768,30.674,12.705,30.127,10.877z M44.658,10.01c-0.188,4.5-1.148,7.785-2.883,9.855
		c-1.734,2.071-4.648,3.425-8.742,4.066L32.822,22.9c1.969-0.328,3.598-0.777,4.887-1.348c1.289-0.57,2.363-1.371,3.223-2.402
		c0.859-1.031,1.488-2.277,1.887-3.738s0.645-3.277,0.738-5.449L44.658,10.01z M35.33,10.15l1.055-0.258
		c0.578,2.031,1.141,4.211,1.688,6.539l-1.055,0.234C36.455,14.307,35.893,12.135,35.33,10.15z"/>
	<path fill="#FFFFFF" d="M56.494,5.346v6.938c4.202,1,8.624,2.375,13.265,4.125l-0.375,1.054c-4.531-1.703-8.828-3.039-12.89-4.007
		v10.781h-1.172V5.346H56.494z"/>
	<path fill="#FFFFFF" d="M74.024,20.861c1.484-2.609,2.836-5.218,4.055-7.828l1.055,0.398c-1.094,2.406-2.461,5.047-4.102,7.921
		L74.024,20.861z M74.54,8.627h9.094v-3.75h1.172v3.75h8.624v1.055h-8.624v11.953c0,1.016-0.146,1.679-0.434,1.992
		c-0.29,0.313-0.902,0.469-1.84,0.469c-1.141,0-2.353-0.117-3.633-0.352l0.164-1.031c1.172,0.203,2.273,0.305,3.305,0.305
		c0.563,0,0.914-0.078,1.055-0.234c0.141-0.156,0.211-0.578,0.211-1.266V9.682H74.54V8.627z M88.835,13.432l1.031-0.469
		c1.234,2.234,2.602,4.945,4.102,8.132l-1.055,0.445C91.492,18.51,90.132,15.807,88.835,13.432z M89.562,4.268l0.844-0.468
		c0.531,0.828,1.219,2,2.063,3.515L91.625,7.76C90.968,6.541,90.281,5.377,89.562,4.268z M92.562,3.846l0.844-0.469
		c0.844,1.359,1.547,2.554,2.109,3.585l-0.844,0.445C93.984,6.159,93.281,4.971,92.562,3.846z"/>
	<path fill="#FFFFFF" d="M103.367,5.346v6.938c4.202,1,8.624,2.375,13.265,4.125l-0.375,1.054c-4.531-1.703-8.828-3.039-12.89-4.007
		v10.781h-1.172V5.346H103.367z"/>
	<path fill="#FFFFFF" d="M125.772,6.166h1.172v4.523c0,3.016-0.173,5.371-0.516,7.066c-0.344,1.696-0.867,2.973-1.57,3.832
		c-0.703,0.859-1.742,1.609-3.117,2.25l-0.586-0.984c1.25-0.594,2.184-1.277,2.801-2.051s1.074-1.934,1.371-3.48
		c0.297-1.546,0.445-3.757,0.445-6.632V6.166z M132.919,22.666c2.109-0.219,3.867-1.156,5.273-2.813
		c1.406-1.656,2.227-3.789,2.461-6.398l1.102,0.141c-0.266,3.047-1.293,5.507-3.082,7.382s-3.988,2.813-6.597,2.813h-0.328V6.166
		h1.171V22.666z"/>
</g>
</svg>
