<?xml version="1.0" encoding="utf-8"?>
<!-- Generator: Adobe Illustrator 15.0.0, SVG Export Plug-In . SVG Version: 6.00 Build 0)  -->
<!DOCTYPE svg PUBLIC "-//W3C//DTD SVG 1.1//EN" "http://www.w3.org/Graphics/SVG/1.1/DTD/svg11.dtd">
<svg version="1.1" id="レイヤー_1" xmlns="http://www.w3.org/2000/svg" xmlns:xlink="http://www.w3.org/1999/xlink" x="0px"
	 y="0px" width="167.994px" height="28.223px" viewBox="0 0 167.994 28.223" enable-background="new 0 0 167.994 28.223"
	 xml:space="preserve">
<g>
	<path fill="#FFFFFF" d="M7.089,16.15V5.955h1.172V16.15H7.089z M19.534,5.955h1.195v5.836c0,3.891-0.84,6.793-2.52,8.707
		c-1.68,1.914-4.488,3.176-8.426,3.785L9.55,23.205c3.672-0.594,6.254-1.75,7.746-3.469c1.492-1.718,2.238-4.367,2.238-7.945V5.955z
		"/>
	<path fill="#FFFFFF" d="M27.221,9.447h4.313V5.111h1.101v4.336h9.375V5.111h1.148v4.336h4.312v1.055h-4.312v1.547
		c0,3.984-0.793,6.852-2.379,8.601c-1.586,1.75-4.379,2.82-8.379,3.211l-0.188-1.055c1.906-0.203,3.469-0.523,4.688-0.961
		c1.219-0.437,2.218-1.086,3-1.945c0.781-0.859,1.328-1.91,1.641-3.152c0.312-1.242,0.469-2.809,0.469-4.699v-1.547h-9.375v5.578
		h-1.101v-5.578h-4.313V9.447z"/>
	<path fill="#FFFFFF" d="M51.478,14.744c3.391-0.484,6.694-1.535,9.914-3.152c3.218-1.617,5.788-3.527,7.71-5.73l0.75,0.773
		c-1.797,2.047-4.164,3.867-7.102,5.461v12.117h-1.194V12.705c-3.234,1.594-6.539,2.625-9.914,3.094L51.478,14.744z"/>
	<path fill="#FFFFFF" d="M90.781,8.463h-9.937c-0.876,2.797-2.438,5.219-4.688,7.266l-0.773-0.727
		c2.906-2.672,4.585-6.047,5.039-10.125l1.125,0.094c-0.094,0.813-0.234,1.625-0.422,2.438h10.827v0.305
		c0,5.094-1.227,8.91-3.68,11.449c-2.453,2.54-6.336,4.035-11.647,4.488l-0.164-1.055c4.953-0.453,8.55-1.777,10.792-3.973
		C89.496,16.428,90.671,13.041,90.781,8.463z"/>
	<path fill="#FFFFFF" d="M102.335,6.166h1.172v4.523c0,3.016-0.173,5.371-0.516,7.066c-0.344,1.696-0.867,2.973-1.57,3.832
		c-0.703,0.859-1.742,1.609-3.117,2.25l-0.586-0.984c1.25-0.594,2.184-1.277,2.801-2.051s1.074-1.934,1.371-3.48
		c0.297-1.546,0.445-3.757,0.445-6.632V6.166z M109.483,22.666c2.109-0.219,3.867-1.156,5.273-2.813
		c1.406-1.656,2.227-3.789,2.461-6.398l1.102,0.141c-0.266,3.047-1.293,5.507-3.082,7.382s-3.988,2.813-6.597,2.813h-0.328V6.166
		h1.171V22.666z"/>
	<path fill="#FFFFFF" d="M137.021,6.119c0-0.75,0.27-1.395,0.809-1.934c0.539-0.539,1.184-0.808,1.934-0.808s1.395,0.27,1.934,0.808
		c0.539,0.539,0.809,1.184,0.809,1.934s-0.27,1.395-0.809,1.934s-1.184,0.809-1.934,0.809c-0.203,0-0.477-0.047-0.82-0.141
		c-0.188,4.625-1.48,8.167-3.879,10.628s-6.004,3.964-10.815,4.512l-0.188-1.078c4.608-0.547,8.022-1.988,10.241-4.324
		c2.219-2.335,3.383-5.746,3.492-10.23h-15.96V7.127h15.397C137.091,6.768,137.021,6.432,137.021,6.119z M141.052,7.408
		c0.359-0.359,0.539-0.789,0.539-1.289c0-0.5-0.18-0.929-0.539-1.289c-0.359-0.359-0.789-0.539-1.289-0.539s-0.93,0.18-1.289,0.539
		c-0.359,0.36-0.539,0.79-0.539,1.289c0,0.5,0.18,0.93,0.539,1.289c0.359,0.36,0.789,0.539,1.289,0.539S140.693,7.768,141.052,7.408
		z"/>
	<path fill="#FFFFFF" d="M145.505,12.307h17.882v0.328c0,3.391-1.203,6.051-3.609,7.98c-2.406,1.93-5.969,3.074-10.687,3.434
		l-0.141-1.055c1.359-0.109,2.625-0.285,3.797-0.527c1.172-0.242,2.335-0.605,3.491-1.09c1.156-0.484,2.148-1.074,2.977-1.77
		c0.828-0.695,1.516-1.574,2.063-2.637c0.547-1.062,0.859-2.265,0.938-3.609h-16.71V12.307z M147.333,7.455V6.4h14.39v1.055H147.333
		z"/>
</g>
</svg>
