<?xml version="1.0" encoding="utf-8"?>
<!-- Generator: Adobe Illustrator 15.0.0, SVG Export Plug-In . SVG Version: 6.00 Build 0)  -->
<!DOCTYPE svg PUBLIC "-//W3C//DTD SVG 1.1//EN" "http://www.w3.org/Graphics/SVG/1.1/DTD/svg11.dtd">
<svg version="1.1" id="レイヤー_1" xmlns="http://www.w3.org/2000/svg" xmlns:xlink="http://www.w3.org/1999/xlink" x="0px"
	 y="0px" width="95.42px" height="28.223px" viewBox="0 0 95.42 28.223" enable-background="new 0 0 95.42 28.223"
	 xml:space="preserve">
<g>
	<path fill="#FFFFFF" d="M3.574,10.947c2.375-0.718,4.313-1.5,5.812-2.344l0.469,0.867c-1.484,0.844-3.468,1.648-5.953,2.414
		L3.574,10.947z M3.785,24.095c3.171-0.797,5.617-1.719,7.335-2.766l0.492,0.844c-1.703,1.093-4.188,2.047-7.453,2.859L3.785,24.095
		z M8.589,7.057C7.605,6.635,6.152,6.119,4.23,5.51l0.398-0.914c1.75,0.532,3.218,1.047,4.406,1.547L8.589,7.057z M7.16,21.189
		H5.988v-9.07h15.843v9.07H7.16z M7.16,14.838h13.5v-1.781H7.16V14.838z M7.16,15.752v1.804h13.5v-1.804H7.16z M7.16,18.47v1.781
		h13.5V18.47H7.16z M8.285,10.854c2.406-0.359,4.253-0.938,5.542-1.734s1.934-1.641,1.934-2.531V6.33h-2.93
		c-0.797,0.75-1.719,1.415-2.766,1.992L9.339,7.596c1.813-1,3.188-2.195,4.125-3.586l1.055,0.305
		c-0.234,0.375-0.5,0.735-0.797,1.078h10.031V6.33c-0.859,1.031-2.016,1.922-3.468,2.672l-0.703-0.773
		c1.046-0.516,1.953-1.148,2.718-1.898h-5.39v0.258c0,1,0.645,1.945,1.934,2.836s3.082,1.523,5.378,1.898l-0.305,0.961
		c-1.859-0.297-3.457-0.801-4.792-1.512S16.847,9.236,16.3,8.299c-0.578,0.813-1.539,1.527-2.883,2.145s-2.953,1.066-4.828,1.348
		L8.285,10.854z M16.253,22.314l0.352-0.867c3,0.906,5.492,1.875,7.476,2.906l-0.516,0.891
		C21.581,24.212,19.143,23.236,16.253,22.314z"/>
	<path fill="#FFFFFF" d="M30.385,14.229c-1.219-1.172-2.602-2.344-4.148-3.516l0.656-0.82c1.625,1.234,3.023,2.414,4.195,3.539
		L30.385,14.229z M31.792,17.486c-0.922,2.625-2.211,5.071-3.867,7.336l-0.914-0.633c1.625-2.203,2.89-4.562,3.797-7.078
		L31.792,17.486z M27.362,5.557l0.68-0.82c1.328,1.016,2.593,2.102,3.797,3.258l-0.703,0.797
		C30.072,7.775,28.815,6.698,27.362,5.557z M33.572,5.252h14.39V6.26H42.15c-0.141,0.875-0.313,1.664-0.516,2.367h5.179v8.554
		h-4.687v5.273c0,1.016-0.098,1.66-0.293,1.934c-0.196,0.273-0.7,0.41-1.512,0.41c-0.422,0-1.258-0.039-2.508-0.117V23.65
		c0.938,0.062,1.695,0.094,2.273,0.094c0.453,0,0.723-0.067,0.809-0.199c0.085-0.133,0.129-0.566,0.129-1.301v-5.063h-3.539h-1.102
		V8.627h4.055c0.172-0.609,0.352-1.398,0.539-2.367h-6.305v6.703c0,4.719-0.813,8.633-2.438,11.742l-0.89-0.797
		c1.484-3.015,2.226-6.844,2.226-11.484V5.252z M34.252,23.275c1.547-1.453,2.758-3.211,3.633-5.273l0.938,0.398
		c-0.906,2.172-2.172,4.023-3.797,5.555L34.252,23.275z M37.486,12.354h8.203V9.588h-8.203V12.354z M37.486,13.268v2.953h8.203
		v-2.953H37.486z M43.439,18.681l0.797-0.633c1.531,1.766,2.835,3.625,3.914,5.578l-0.891,0.563
		C46.103,22.142,44.83,20.307,43.439,18.681z"/>
	<path fill="#FFFFFF" d="M51.642,7.596h15.937v15.117H51.642v-1.055h14.812V8.65H51.642V7.596z M66.29,4.197l0.844-0.468
		c0.531,0.828,1.219,2,2.063,3.515l-0.844,0.445C67.696,6.471,67.008,5.307,66.29,4.197z M69.29,3.776l0.867-0.469
		C71,4.666,71.704,5.861,72.266,6.893l-0.867,0.445C70.711,6.088,70.008,4.9,69.29,3.776z"/>
	<path fill="#FFFFFF" d="M75.618,21.962l0.047-1.148c5.703,0.203,11.374,0.829,17.015,1.875l-0.164,1.148
		C86.906,22.791,81.274,22.166,75.618,21.962z M76.743,7.268l0.07-1.125c4.906,0.172,9.952,0.649,15.14,1.43l-0.141,1.102
		C86.75,7.909,81.726,7.44,76.743,7.268z M77.54,14.205l0.07-1.148c4.327,0.156,8.757,0.633,13.288,1.43l-0.164,1.148
		C86.109,14.838,81.711,14.361,77.54,14.205z"/>
</g>
</svg>
