<?xml version="1.0" encoding="utf-8"?>
<!-- Generator: Adobe Illustrator 15.0.0, SVG Export Plug-In . SVG Version: 6.00 Build 0)  -->
<!DOCTYPE svg PUBLIC "-//W3C//DTD SVG 1.1//EN" "http://www.w3.org/Graphics/SVG/1.1/DTD/svg11.dtd">
<svg version="1.1" id="レイヤー_1" xmlns="http://www.w3.org/2000/svg" xmlns:xlink="http://www.w3.org/1999/xlink" x="0px"
	 y="0px" width="121.762px" height="28.223px" viewBox="0 0 121.762 28.223" enable-background="new 0 0 121.762 28.223"
	 xml:space="preserve">
<g>
	<path fill="#FFFFFF" d="M7.699,5.768h12.257v0.984c-4.125,3.141-7.797,5.273-11.016,6.398l0.023,0.047l14.367-1.055l0.07,1.008
		l-5.484,0.398c-2.172,0.734-3.832,1.625-4.98,2.672s-1.723,2.179-1.723,3.398c0,2.391,2.203,3.586,6.609,3.586
		c1.172,0,2.25-0.085,3.234-0.258l0.141,1.031c-0.907,0.172-2.032,0.258-3.375,0.258c-1.485,0-2.758-0.129-3.82-0.387
		s-1.871-0.609-2.426-1.055s-0.949-0.917-1.184-1.418c-0.234-0.5-0.352-1.055-0.352-1.664c0-1.156,0.434-2.246,1.301-3.269
		s2.184-1.918,3.949-2.684v-0.047L4.019,14.557l-0.07-1.008c3.891-0.281,8.609-2.523,14.156-6.727V6.775H7.699V5.768z"/>
	<path fill="#FFFFFF" d="M39.76,22.572c1.953-0.188,3.484-0.973,4.594-2.355c1.109-1.383,1.664-3.191,1.664-5.425
		c0-2.125-0.73-3.879-2.191-5.262c-1.461-1.383-3.309-2.074-5.543-2.074h-0.117c-1.016,10.328-3.125,15.492-6.328,15.492
		c-1.063,0-2.039-0.656-2.93-1.969s-1.336-2.921-1.336-4.828c0-2.875,0.996-5.219,2.988-7.031C32.553,7.307,35.127,6.4,38.283,6.4
		c2.563,0,4.676,0.789,6.34,2.367c1.664,1.578,2.496,3.586,2.496,6.023c0,2.547-0.645,4.609-1.934,6.187
		c-1.289,1.579-3.035,2.461-5.238,2.648L39.76,22.572z M37.041,7.502c-2.516,0.25-4.539,1.16-6.07,2.73
		c-1.532,1.57-2.297,3.543-2.297,5.918c0,1.609,0.347,2.964,1.043,4.066c0.695,1.102,1.402,1.652,2.121,1.652
		c0.265,0,0.535-0.074,0.808-0.223c0.273-0.148,0.574-0.406,0.902-0.773c0.328-0.367,0.652-0.906,0.973-1.617
		c0.32-0.71,0.633-1.574,0.938-2.589s0.594-2.309,0.867-3.879S36.838,9.456,37.041,7.502z"/>
	<path fill="#FFFFFF" d="M54.056,11.064v14.109h-1.125V13.057c-0.766,1.359-1.617,2.594-2.555,3.703l-0.633-0.961
		c2.625-3.188,4.477-7.008,5.555-11.461L56.4,4.596C55.869,6.924,55.087,9.081,54.056,11.064z M58.486,5.463h1.125v4.664l4.03-1.055
		V4.197h1.102v4.594l5.648-1.453v0.609c0,3.047-0.059,5.293-0.176,6.738s-0.277,2.355-0.48,2.73s-0.531,0.563-0.984,0.563
		c-0.563,0-1.328-0.039-2.297-0.117l-0.117-1.031c0.891,0.079,1.602,0.117,2.133,0.117c0.141,0,0.258-0.089,0.352-0.269
		s0.176-0.555,0.246-1.125s0.121-1.406,0.152-2.508s0.047-2.551,0.047-4.348l-4.523,1.195V19.9h-1.102v-9.726l-4.03,1.055v10.054
		c0,1.078,0.054,1.711,0.164,1.898c0.108,0.188,0.483,0.305,1.125,0.352c0.891,0.062,1.835,0.094,2.835,0.094
		c1.078,0,2.086-0.032,3.023-0.094c0.484-0.032,0.828-0.055,1.031-0.07c0.203-0.016,0.453-0.07,0.75-0.164s0.488-0.156,0.574-0.188
		c0.086-0.031,0.211-0.167,0.375-0.41c0.164-0.242,0.258-0.434,0.281-0.574s0.074-0.445,0.152-0.914s0.129-0.863,0.152-1.184
		c0.023-0.32,0.066-0.863,0.129-1.629l1.078,0.188c-0.063,0.782-0.109,1.391-0.141,1.828c-0.031,0.438-0.09,0.891-0.176,1.359
		s-0.164,0.813-0.234,1.031c-0.07,0.219-0.195,0.453-0.375,0.703c-0.18,0.25-0.348,0.414-0.504,0.492
		c-0.156,0.078-0.402,0.167-0.738,0.27c-0.336,0.102-0.656,0.164-0.961,0.188s-0.73,0.059-1.277,0.105
		c-1.219,0.078-2.32,0.117-3.305,0.117c-1.109,0-2.117-0.039-3.022-0.117c-0.984-0.079-1.575-0.278-1.77-0.598
		c-0.196-0.32-0.293-1.207-0.293-2.66v-9.773l-2.766,0.703l-0.234-1.055l3-0.773V5.463z"/>
	<path fill="#FFFFFF" d="M90.148,6.119c0-0.75,0.27-1.395,0.809-1.934c0.539-0.539,1.184-0.808,1.934-0.808s1.395,0.27,1.934,0.808
		c0.539,0.539,0.809,1.184,0.809,1.934s-0.27,1.395-0.809,1.934S93.64,8.861,92.89,8.861c-0.203,0-0.477-0.047-0.82-0.141
		c-0.188,4.625-1.48,8.167-3.879,10.628s-6.004,3.964-10.815,4.512l-0.188-1.078c4.608-0.547,8.022-1.988,10.241-4.324
		c2.219-2.335,3.383-5.746,3.492-10.23h-15.96V7.127h15.397C90.218,6.768,90.148,6.432,90.148,6.119z M94.179,7.408
		c0.359-0.359,0.539-0.789,0.539-1.289c0-0.5-0.18-0.929-0.539-1.289C93.82,4.471,93.39,4.291,92.89,4.291s-0.93,0.18-1.289,0.539
		c-0.359,0.36-0.539,0.79-0.539,1.289c0,0.5,0.18,0.93,0.539,1.289c0.359,0.36,0.789,0.539,1.289,0.539S93.82,7.768,94.179,7.408z"
		/>
	<path fill="#FFFFFF" d="M98.632,12.307h17.882v0.328c0,3.391-1.203,6.051-3.609,7.98c-2.406,1.93-5.969,3.074-10.687,3.434
		l-0.141-1.055c1.359-0.109,2.625-0.285,3.797-0.527c1.172-0.242,2.335-0.605,3.491-1.09c1.156-0.484,2.148-1.074,2.977-1.77
		c0.828-0.695,1.516-1.574,2.063-2.637c0.547-1.062,0.859-2.265,0.938-3.609h-16.71V12.307z M100.46,7.455V6.4h14.39v1.055H100.46z"
		/>
</g>
</svg>
