<?xml version="1.0" encoding="utf-8"?>
<!-- Generator: Adobe Illustrator 15.0.0, SVG Export Plug-In . SVG Version: 6.00 Build 0)  -->
<!DOCTYPE svg PUBLIC "-//W3C//DTD SVG 1.1//EN" "http://www.w3.org/Graphics/SVG/1.1/DTD/svg11.dtd">
<svg version="1.1" id="レイヤー_1" xmlns="http://www.w3.org/2000/svg" xmlns:xlink="http://www.w3.org/1999/xlink" x="0px"
	 y="0px" width="95.42px" height="28.223px" viewBox="0 0 95.42 28.223" enable-background="new 0 0 95.42 28.223"
	 xml:space="preserve">
<g>
	<path fill="#FFFFFF" d="M3.527,16.853l-0.539-0.984c1.656-1.234,3.039-2.535,4.148-3.902C8.245,10.6,9.183,9.034,9.948,7.268H3.55
		V6.283h6.796c0.266-0.656,0.547-1.468,0.844-2.437l1.148,0.164c-0.281,0.938-0.531,1.696-0.75,2.273h12.679v0.984H11.19
		c-0.5,1.172-1.055,2.25-1.664,3.234h12.867v12.257c0,0.875-0.137,1.414-0.41,1.617c-0.273,0.203-0.957,0.305-2.05,0.305
		c-0.688,0-1.805-0.039-3.352-0.117V23.58c1.438,0.078,2.508,0.117,3.211,0.117c0.718,0,1.137-0.032,1.254-0.094
		c0.117-0.063,0.176-0.29,0.176-0.68v-2.789H9.034v4.664H7.863v-12C6.612,14.283,5.167,15.635,3.527,16.853z M9.034,14.838h12.188
		v-3.352H9.034V14.838z M9.034,15.775v3.421h12.188v-3.421H9.034z"/>
	<path fill="#FFFFFF" d="M37.932,15.166h9.585v0.984H27.174v-0.984h9.585v-2.32h-8.203v-0.938h8.203V9.799h-7.5V8.861h7.5V6.916
		h-8.085v2.953h-1.102V5.932h9.187V3.846h1.172v2.085h9.187v3.938h-1.102V6.916h-8.085v1.945h7.5v0.938h-7.5v2.109h8.203v0.938
		h-8.203V15.166z M30.784,23.767v1.289h-1.172v-7.195H45.08v7.195h-1.171v-1.289H30.784z M43.908,22.783v-3.938H30.784v3.938H43.908
		z"/>
	<path fill="#FFFFFF" d="M51.642,7.596h15.937v15.117H51.642v-1.055h14.812V8.65H51.642V7.596z M66.29,4.197l0.844-0.468
		c0.531,0.828,1.219,2,2.063,3.515l-0.844,0.445C67.696,6.471,67.008,5.307,66.29,4.197z M69.29,3.776l0.867-0.469
		C71,4.666,71.704,5.861,72.266,6.893l-0.867,0.445C70.711,6.088,70.008,4.9,69.29,3.776z"/>
	<path fill="#FFFFFF" d="M75.618,21.962l0.047-1.148c5.703,0.203,11.374,0.829,17.015,1.875l-0.164,1.148
		C86.906,22.791,81.274,22.166,75.618,21.962z M76.743,7.268l0.07-1.125c4.906,0.172,9.952,0.649,15.14,1.43l-0.141,1.102
		C86.75,7.909,81.726,7.44,76.743,7.268z M77.54,14.205l0.07-1.148c4.327,0.156,8.757,0.633,13.288,1.43l-0.164,1.148
		C86.109,14.838,81.711,14.361,77.54,14.205z"/>
</g>
</svg>
